<svg width="106" height="117" viewBox="0 0 106 117" xmlns="http://www.w3.org/2000/svg"><title>Untitled 2</title><g fill="none" fill-rule="evenodd"><path d="M28.48 1.46l63.953 14.764-14.765 63.953-63.953-14.764m1.64-7.106L79.31 73.07M16.995 51.2L80.95 65.966M20.276 36.99L84.23 51.753m-62.312-21.87L85.87 44.647M25.2 15.67L89.15 30.437M26.84 8.566L90.79 23.33m-5.465-8.746L70.562 78.537m7.66-65.594L63.455 76.896m.553-67.234L49.244 73.615m7.658-65.593L42.14 71.975M42.69 4.74L27.927 68.694M35.587 3.1L20.82 67.053M28.48 1.46L13.715 65.412" stroke="#505050"/><path d="M39.806 48.78l4.832-20.933-21.124-4.877.09-.386 21.123 4.877 4.877-21.124.387.09-4.876 21.124 20.93 4.832 4.878-21.124.386.09L66.43 32.47l21.126 4.877-.09.385-21.124-4.877-4.832 20.93 21.124 4.878-.09.387-21.123-4.877L56.545 75.3l-.387-.09 4.877-21.123-20.93-4.833-4.878 21.125-.386-.09 4.877-21.125-21.125-4.877.09-.386 21.124 4.877zm.386.088L61.124 53.7l4.832-20.93-20.93-4.834-4.834 20.932z" stroke="#000" stroke-width="2.175"/><path d="M42.743 25.51l-2.097-.483.09-.395.808.186.6-2.597-.807-.185.08-.354c.11.026.23.044.36.056.128.01.23.005.3-.015.09-.024.166-.065.226-.12.063-.057.11-.14.143-.252l.404.093-.807 3.493.792.183-.092.395zM57.21 28.887l-2.623-.606.126-.542c.218-.114.436-.23.654-.343.22-.113.427-.23.62-.347.408-.246.695-.45.862-.61.166-.162.275-.354.326-.574.047-.2.016-.374-.092-.517-.105-.145-.276-.245-.514-.3-.158-.036-.335-.048-.532-.035-.197.013-.396.057-.598.13l-.026-.005.127-.547c.138-.032.315-.05.53-.053.22-.002.424.02.617.063.397.092.686.26.867.505.182.242.235.528.16.856-.035.148-.086.282-.154.4-.065.12-.148.227-.247.325-.093.092-.197.18-.313.262-.114.084-.25.174-.41.27-.228.14-.46.272-.698.398-.237.125-.458.24-.664.346l2.085.482-.103.445zM66.075 21.44c.066.095.113.205.14.33.03.125.022.277-.02.456-.04.177-.11.33-.208.464-.098.133-.218.24-.36.323-.158.09-.332.146-.523.164-.188.017-.387 0-.597-.048-.215-.05-.42-.125-.617-.225s-.355-.194-.474-.285l.125-.544.04.01c.125.13.28.25.465.36.185.11.37.188.555.23.11.026.23.035.362.027.13-.008.243-.04.336-.093.098-.057.176-.128.235-.21.062-.084.108-.195.14-.336.033-.14.037-.258.012-.36-.022-.1-.066-.187-.132-.257-.066-.072-.152-.13-.258-.175-.107-.046-.224-.084-.352-.114l-.234-.054.098-.432.182.042c.264.06.487.055.668-.02.184-.073.3-.216.35-.428.02-.094.02-.18-.005-.258-.023-.08-.065-.152-.126-.213-.064-.062-.137-.112-.218-.15-.082-.036-.176-.067-.284-.092-.164-.038-.347-.05-.546-.033-.2.016-.393.06-.583.13l-.026-.007.126-.544c.138-.033.314-.05.53-.054.22-.005.425.016.617.06.19.044.352.1.488.167.137.068.254.154.353.257.105.112.177.235.214.367.037.133.037.28 0 .436-.05.215-.17.386-.36.512-.187.125-.39.184-.605.178l-.008.037c.08.033.17.084.266.154.097.068.176.144.235.227zM80.492 25.597c-.077.335-.273.583-.586.745-.31.162-.665.197-1.06.106-.42-.097-.73-.283-.93-.557-.198-.273-.258-.58-.18-.918.05-.215.157-.395.322-.54.166-.146.374-.244.625-.294l.003-.015c-.182-.16-.31-.317-.38-.472-.067-.153-.08-.33-.033-.527.067-.292.243-.507.527-.646.285-.14.612-.166.98-.08.388.09.675.253.863.492.188.238.25.5.183.786-.04.176-.135.336-.284.48-.148.143-.34.238-.572.285l-.004.016c.22.16.375.332.468.514.093.182.112.392.058.627zm-.18-2.034c.043-.185.005-.35-.114-.492-.116-.143-.286-.24-.508-.292-.218-.05-.41-.04-.575.032-.162.072-.264.197-.305.374-.03.124-.02.24.03.35.05.106.137.21.263.315.057.045.14.107.248.185.11.078.22.147.326.206.198-.073.344-.165.44-.273.093-.108.16-.242.196-.404zm-.368 1.96c.037-.16.03-.295-.018-.407-.047-.113-.16-.242-.344-.386-.072-.057-.154-.114-.243-.17-.09-.054-.21-.13-.357-.226-.176.05-.328.135-.457.26-.128.123-.212.277-.255.46-.053.235-.017.447.11.637.125.19.312.314.56.372.254.058.47.04.652-.056.182-.095.3-.256.352-.483zM87.528 27.02c-.042.18-.115.346-.22.495-.103.15-.225.268-.366.354-.153.092-.323.15-.512.177-.187.024-.394.01-.62-.042-.213-.05-.41-.118-.597-.21-.186-.087-.34-.18-.46-.272l.127-.55.036.01c.12.122.27.238.446.346.177.105.357.18.54.222.124.03.247.04.37.03.123-.007.24-.044.35-.11.094-.057.172-.133.235-.228s.11-.21.143-.348c.03-.134.033-.252.008-.355-.024-.1-.07-.19-.14-.264-.074-.087-.174-.158-.298-.214-.122-.057-.263-.105-.422-.14-.153-.037-.303-.06-.45-.072-.145-.012-.27-.02-.38-.022l.462-1.996 2.332.538-.105.456-1.83-.423-.238 1.03c.076.01.153.024.232.038l.204.043c.21.048.39.11.54.182.15.07.28.167.39.288.117.127.197.275.238.444.04.168.036.366-.016.593zM63.46 34.302l-2.515 2.89-.557-.13 2.655-2.988-2.206-.51.105-.455 2.652.612M48.717 33.03c-.042.18-.115.345-.218.494-.105.15-.228.268-.368.354-.153.093-.324.152-.513.178-.187.025-.394.01-.62-.042-.213-.05-.412-.118-.597-.21-.186-.087-.34-.178-.46-.272l.126-.55.035.01c.122.122.27.238.447.346.176.107.356.18.54.224.123.028.246.038.37.03.123-.008.24-.045.35-.11.094-.058.172-.134.234-.23.064-.094.112-.21.143-.347.03-.134.033-.252.007-.355-.024-.102-.07-.19-.14-.265-.074-.086-.173-.158-.297-.214-.122-.056-.263-.103-.423-.14-.152-.035-.302-.06-.45-.07-.145-.013-.27-.02-.378-.023l.46-1.996 2.33.54-.104.455-1.83-.422-.237 1.03c.075.01.153.023.232.037.078.015.146.03.204.042.21.048.39.11.54.182.15.07.28.167.39.288.117.127.196.275.237.444.042.168.036.366-.016.593zM40.132 38.723l-.575-.133-.252 1.09-.5-.115.252-1.09-1.855-.43.138-.597 2.38-1.753.48.11-.547 2.368.575.133-.096.417zm-.98-.665l.405-1.75-1.905 1.403 1.5.348zM31.54 43.088c-.077.338-.187.636-.33.894-.14.258-.31.466-.51.625-.204.16-.437.268-.7.32-.262.053-.554.043-.875-.032-.09-.02-.174-.045-.25-.074-.08-.026-.147-.057-.204-.093l.115-.497.026.006c.046.038.11.08.197.125.087.045.187.08.3.106.383.088.71.043.98-.136.27-.18.47-.468.6-.864-.185.06-.353.094-.504.103-.152.007-.312-.008-.48-.046-.16-.037-.3-.086-.424-.148-.123-.06-.238-.15-.347-.27-.128-.142-.213-.303-.253-.485-.04-.18-.032-.383.02-.61.092-.396.296-.688.614-.876.317-.188.663-.24 1.038-.152.188.043.354.113.5.21.147.093.266.212.36.355.113.18.184.39.21.636.03.244.002.546-.08.905zm-.5-.234c.063-.268.085-.49.067-.667-.018-.176-.065-.32-.14-.433-.065-.096-.14-.172-.225-.227-.086-.056-.184-.097-.293-.122-.25-.058-.467-.025-.648.097-.18.123-.303.326-.368.61-.038.163-.046.303-.023.418.024.115.082.224.175.328.065.072.143.128.232.17.09.038.192.07.306.097.136.03.277.045.424.04.147-.004.29-.027.427-.068l.03-.106c.012-.034.024-.08.037-.136zM22.478 49.426c-.042.18-.115.345-.22.495-.103.15-.225.268-.366.355-.152.092-.323.15-.512.177-.187.025-.393.01-.62-.042-.212-.05-.41-.118-.597-.21-.186-.087-.34-.178-.46-.272l.127-.55.036.01c.122.122.27.238.446.346.177.107.357.18.54.224.124.028.247.038.37.03.124-.008.24-.045.35-.11.095-.058.172-.134.235-.23.064-.094.11-.21.143-.347.03-.133.033-.25.008-.353-.024-.103-.07-.19-.14-.266-.074-.085-.174-.157-.298-.213-.122-.057-.262-.104-.422-.14-.153-.036-.303-.06-.45-.072-.145-.012-.27-.02-.378-.022l.46-1.996 2.332.54-.105.454-1.83-.42-.237 1.03c.076.01.153.022.232.036.08.015.147.03.204.042.21.05.39.11.54.182.15.07.28.167.39.288.118.127.197.275.238.444.042.168.036.366-.016.594zM34.796 61.136l-2.623-.606.125-.544.655-.342c.22-.114.426-.23.62-.348.407-.245.695-.45.862-.61.167-.162.276-.353.327-.573.046-.202.016-.374-.092-.518-.105-.145-.277-.244-.515-.3-.157-.036-.335-.048-.53-.034-.198.014-.397.057-.6.13L33 57.386l.126-.546c.137-.034.314-.05.53-.054.218-.003.424.018.616.062.398.092.687.26.868.505.18.243.234.528.16.856-.036.147-.086.28-.154.4-.066.118-.148.226-.248.324-.092.092-.196.18-.312.262-.115.083-.25.173-.41.27-.228.14-.46.272-.698.398l-.664.345 2.084.48-.102.446zM48.752 64.322l-2.097-.484.09-.396.808.187.6-2.6-.807-.185.082-.354c.11.027.228.045.357.056.13.01.23.005.302-.015.09-.024.165-.064.225-.12.063-.056.11-.14.144-.25l.403.092-.807 3.492.79.183-.09.395zM47.78 70.427l-.574-.133-.25 1.09-.5-.115.25-1.09-1.855-.43.14-.598 2.38-1.753.48.11-.548 2.368.576.133-.097.417zm-.977-.664l.404-1.75-1.906 1.403 1.503.347zM76.36 75.89c-.078.337-.188.635-.33.893-.14.258-.31.467-.51.625-.204.16-.437.268-.7.32-.262.054-.554.043-.875-.03-.09-.022-.174-.047-.252-.076-.077-.027-.145-.058-.203-.093l.115-.498.026.006c.045.037.11.08.197.125.087.043.187.078.3.104.383.09.71.044.98-.135.27-.18.47-.47.6-.865-.185.06-.353.094-.505.103-.152.01-.312-.006-.48-.045-.16-.037-.3-.086-.424-.147-.12-.06-.236-.152-.345-.272-.13-.14-.213-.302-.253-.483-.04-.18-.032-.385.02-.612.092-.395.296-.686.614-.874.317-.188.663-.24 1.038-.153.187.044.354.113.5.21.146.093.266.212.36.356.113.177.184.39.21.634.03.244 0 .546-.082.905zm-.5-.234c.063-.27.085-.49.067-.667-.018-.177-.065-.322-.14-.434-.065-.097-.14-.173-.226-.227-.084-.058-.182-.098-.29-.124-.25-.057-.467-.025-.65.098-.18.122-.3.325-.367.608-.038.165-.045.305-.022.42.023.114.08.224.174.327.066.07.143.128.233.168.09.04.19.072.306.098.135.032.277.045.424.04.147-.004.29-.027.427-.068l.03-.105c.01-.036.024-.082.037-.137zM79.19 61.892c.066.094.113.204.14.33.03.124.022.276-.02.455-.04.177-.11.33-.208.464-.098.134-.218.24-.36.324-.158.09-.332.146-.523.164-.19.017-.388 0-.598-.047-.215-.05-.42-.124-.617-.224-.197-.098-.355-.193-.474-.285l.126-.543.04.01c.124.13.28.25.464.36.185.112.37.188.555.23.11.026.23.035.362.027.13-.008.243-.04.336-.092.098-.058.176-.13.235-.212.062-.083.108-.194.14-.335.033-.14.037-.258.012-.36-.022-.1-.066-.187-.132-.257-.065-.072-.152-.13-.258-.175-.106-.046-.224-.084-.352-.114l-.234-.055.1-.432.182.042c.263.06.486.055.667-.018.184-.075.3-.218.35-.43.02-.094.02-.18-.005-.258-.023-.082-.065-.153-.126-.214-.064-.062-.137-.112-.218-.15-.08-.036-.175-.067-.283-.092-.163-.038-.345-.05-.545-.033-.2.018-.393.06-.583.13l-.026-.006.126-.544c.137-.032.313-.05.53-.053.218-.004.424.016.616.06.19.044.352.1.488.167.136.068.253.154.352.257.106.113.177.236.214.368.037.133.037.28 0 .436-.05.216-.17.386-.36.512-.187.125-.388.184-.605.178l-.008.037c.08.034.168.085.265.155.097.07.176.144.235.227zM72.75 58.9l-2.515 2.89-.557-.128 2.656-2.99-2.207-.508.105-.456 2.652.612" fill-rule="nonzero" fill="#000"/><g fill-rule="nonzero" fill="#000"><path d="M67.886 46.285l-2.098-.484.092-.394.806.186.6-2.597-.807-.186.08-.355c.11.025.23.043.358.055.13.01.23.004.303-.015.09-.025.165-.066.226-.12.062-.058.11-.142.143-.253l.402.093-.806 3.492.79.183-.09.395z"/></g><path d="M21.994 102.846H88.01c12.846-2.85 18.135-11.545 15.867-26.085-2.27-14.54-11.198-19.684-26.79-15.434-6.262-17.966-17.798-24.58-34.61-19.844-11.293 3.183-17.427 11.623-18.4 25.323C12.855 63.1 5.63 68.433 2.4 82.8.25 92.352 6.78 99.034 21.993 102.845z" stroke="#0B0A0A" stroke-width="2" fill="#FFF"/><path d="M64.67 93.662c.24 0 .48-.086.67-.26.41-.37.44-1.004.068-1.413L52.075 77.322c-.013-.015-.032-.02-.046-.034-.065-.064-.137-.116-.218-.16-.03-.016-.054-.036-.084-.048-.01-.005-.02-.013-.03-.017-.1-.04-.202-.06-.304-.065-.022 0-.043.005-.066.005-.094 0-.187.013-.277.04-.036.01-.07.027-.106.042-.08.034-.153.078-.223.133-.018.015-.04.02-.06.036-.008.01-.012.02-.02.03-.014.013-.03.02-.043.033l-13.333 14.5c-.374.405-.347 1.038.06 1.412.406.374 1.04.347 1.413-.06L50.334 80.56v34.602c0 .552.448 1 1 1s1-.448 1-1v-34.58l11.594 12.753c.198.217.47.327.74.327z" fill="#323638" fill-rule="nonzero"/></g></svg>